<svg fill="#000000" height="200px" width="200px" version="1.1" id="Layer_1" xmlns="http://www.w3.org/2000/svg" xmlns:xlink="http://www.w3.org/1999/xlink" viewBox="0 0 512 512" xml:space="preserve"><g id="SVGRepo_bgCarrier" stroke-width="0"></g><g id="SVGRepo_tracerCarrier" stroke-linecap="round" stroke-linejoin="round"></g><g id="SVGRepo_iconCarrier"> <g> <g> <path d="M504.499,432.094L381.082,308.668C399.087,278.187,409.6,242.765,409.6,204.8C409.6,91.691,317.909,0,204.8,0 S0,91.691,0,204.8s91.691,204.8,204.8,204.8c37.965,0,73.395-10.513,103.876-28.518l123.418,123.426 c4.804,4.796,11.315,7.492,18.099,7.492c6.793,0,13.303-2.697,18.099-7.501l36.207-36.207 C514.5,458.3,514.5,442.086,504.499,432.094z M204.8,384c-98.807,0-179.2-80.384-179.2-179.2S105.993,25.6,204.8,25.6 S384,105.984,384,204.8S303.607,384,204.8,384z M414.447,450.654l-84.207-84.207c13.542-10.522,25.685-22.673,36.207-36.207 l84.207,84.207L414.447,450.654z M450.193,486.4l-17.647-17.647l36.207-36.207l17.647,17.647L450.193,486.4z"></path> </g> </g> </g></svg>
  
